<svg width="25" height="25" viewBox="0 0 25 25" fill="none" xmlns="http://www.w3.org/2000/svg">
<path d="M24.6258 15.5243C22.9561 22.2215 16.173 26.2973 9.47502 24.6272C2.77977 22.9575 -1.29605 16.1739 0.374439 9.47713C2.04337 2.77914 8.82651 -1.29707 15.5225 0.372637C22.2201 2.04234 26.2956 8.82667 24.6258 15.5243Z" fill="#F7931A"/>
<g style="mix-blend-mode:multiply" opacity="0.8">
<g style="mix-blend-mode:multiply" opacity="0.8">
<path d="M17.9377 10.655C18.1815 9.09503 16.9404 8.25651 15.2433 7.69707L15.7938 5.584L14.4497 5.26345L13.9137 7.32084C13.5604 7.23658 13.1975 7.15708 12.8368 7.07832L13.3766 5.00738L12.0333 4.68683L11.4824 6.79916C11.1899 6.73542 10.9028 6.67241 10.6241 6.6061L10.6256 6.59951L8.77192 6.15659L8.41438 7.53039C8.41438 7.53039 9.4116 7.74909 9.39058 7.76265C9.93493 7.89272 10.0334 8.23744 10.0169 8.51075L9.3898 10.918C9.4273 10.9271 9.47598 10.9403 9.5295 10.9609C9.48473 10.9502 9.43691 10.9385 9.38753 10.9271L8.50853 14.2993C8.44188 14.4576 8.27312 14.6949 7.89253 14.6048C7.90597 14.6235 6.91557 14.3715 6.91557 14.3715L6.24829 15.8438L7.99746 16.2611C8.32289 16.3391 8.64175 16.4208 8.95569 16.4978L8.39946 18.635L9.74202 18.9555L10.2929 16.841C10.6596 16.9363 11.0157 17.0242 11.3641 17.107L10.8151 19.2116L12.1592 19.5322L12.7155 17.399C15.0075 17.814 16.731 17.6466 17.4564 15.6628C18.041 14.0656 17.4274 13.1442 16.2215 12.5434C17.0996 12.3496 17.7612 11.7968 17.9377 10.655ZM14.8666 14.776C14.4512 16.3732 11.6408 15.5097 10.7297 15.2932L11.4678 12.4617C12.3789 12.6793 15.3007 13.1101 14.8666 14.776ZM15.2824 10.6318C14.9034 12.0848 12.5643 11.3466 11.8054 11.1656L12.4747 8.59756C13.2334 8.77851 15.677 9.11628 15.2824 10.6318Z" fill="#151518"/>
</g>
</g>
</svg>
