<svg width="24" height="25" viewBox="0 0 24 25" fill="none" xmlns="http://www.w3.org/2000/svg">
<path d="M1.53345 19.8961L2.26973 19.1641L2.45916 18.9687C2.61345 18.8058 2.78488 18.6181 2.97088 18.4072C3.50145 17.8038 4.03202 17.1404 4.52659 16.4375C5.3683 15.241 6.0163 14.0581 6.39259 12.9395C7.4503 9.79638 11.4986 8.89724 14.0409 11.857C16.8274 15.1012 14.0092 19.897 9.4303 19.897H1.53516L1.53345 19.8961ZM9.42859 19.039C13.3234 19.039 15.6617 15.0601 13.3894 12.415C11.2894 9.96953 8.05373 10.6878 7.2043 13.213C6.79802 14.4198 6.11316 15.6721 5.22688 16.9304C4.71345 17.6607 4.16316 18.3472 3.61373 18.973L3.55545 19.0398H9.42945L9.42859 19.039Z" fill="#AEADAD"/>
<path d="M15.5846 5.32639L14.3683 6.42867C13.4846 7.2301 13.4469 8.57239 14.286 9.41153L15.8949 11.0204C16.7314 11.857 18.0832 11.8381 18.906 10.9818L23.7489 5.94696L23.1309 5.35296L18.288 10.3878C17.796 10.8987 16.9963 10.9098 16.5 10.4144L14.8912 8.80553C14.3992 8.31353 14.4214 7.53696 14.9434 7.06381L16.1597 5.96153L15.5846 5.32639Z" fill="#AEADAD"/>
</svg>
