<svg width="24" height="25" viewBox="0 0 24 25" fill="none" xmlns="http://www.w3.org/2000/svg">
<path d="M2.57141 4.74026H21.4286V3.88312H2.57141V4.74026Z" fill="#AEADAD"/>
<path d="M2.57141 15.026H21.4286V14.1688H2.57141V15.026Z" fill="#AEADAD"/>
<path d="M2.57141 9.88312H19.2857V9.02598H2.57141V9.88312Z" fill="#AEADAD"/>
<path d="M4.71423 20.1688H21.4285V19.3117H4.71423V20.1688Z" fill="#AEADAD"/>
<path d="M2.99997 21.026C3.70969 21.026 4.28569 20.45 4.28569 19.7403C4.28569 19.0305 3.70969 18.4545 2.99997 18.4545C2.29026 18.4545 1.71426 19.0305 1.71426 19.7403C1.71426 20.45 2.29026 21.026 2.99997 21.026ZM2.99997 21.8831C1.81626 21.8831 0.857117 20.924 0.857117 19.7403C0.857117 18.5565 1.81626 17.5974 2.99997 17.5974C4.18369 17.5974 5.14283 18.5565 5.14283 19.7403C5.14283 20.924 4.18369 21.8831 2.99997 21.8831ZM21 10.7403C21.7097 10.7403 22.2857 10.1643 22.2857 9.45455C22.2857 8.74483 21.7097 8.16883 21 8.16883C20.2903 8.16883 19.7143 8.74483 19.7143 9.45455C19.7143 10.1643 20.2903 10.7403 21 10.7403ZM21 11.5974C19.8163 11.5974 18.8571 10.6383 18.8571 9.45455C18.8571 8.27083 19.8163 7.31169 21 7.31169C22.1837 7.31169 23.1428 8.27083 23.1428 9.45455C23.1428 10.6383 22.1837 11.5974 21 11.5974Z" fill="#AEADAD"/>
</svg>
