<svg width="24" height="24" viewBox="0 0 24 24" fill="none" xmlns="http://www.w3.org/2000/svg">
<path d="M17.997 14.5521L13.4092 19.14M13.4092 14.5521L17.997 19.14M7.90371 9.50545H14.3267M15.7031 6.29394C15.7031 5.68555 15.4614 5.10208 15.0312 4.67188C14.601 4.24168 14.0176 4 13.4092 4C12.8008 4 12.2173 4.24168 11.7871 4.67188C11.3569 5.10208 11.1152 5.68555 11.1152 6.29394V16.3873C11.1152 16.9957 10.8735 17.5791 10.4433 18.0093C10.0131 18.4395 9.42967 18.6812 8.82128 18.6812C8.21289 18.6812 7.62942 18.4395 7.19922 18.0093C6.76903 17.5791 6.52734 16.9957 6.52734 16.3873" stroke="#F2F1F0"/>
</svg>
