<svg width="24" height="24" viewBox="0 0 24 24" fill="none" xmlns="http://www.w3.org/2000/svg">
<path d="M19.716 19.7142C19.7142 19.7142 19.7142 15.4311 19.7142 15.4311L13.7125 15.4285C13.7142 15.4285 13.7142 19.7117 13.7142 19.7117L19.716 19.7142ZM12.8571 15.4311C12.8568 15.3184 12.8786 15.2069 12.9214 15.1027C12.9643 14.9985 13.0272 14.9038 13.1066 14.8239C13.1861 14.7441 13.2805 14.6807 13.3844 14.6373C13.4884 14.594 13.5999 14.5716 13.7125 14.5714H19.716C20.1882 14.5714 20.5714 14.9468 20.5714 15.4311V19.7117C20.5717 19.8243 20.5499 19.9359 20.507 20.0401C20.4642 20.1442 20.4013 20.239 20.3218 20.3188C20.2424 20.3986 20.148 20.462 20.044 20.5054C19.9401 20.5487 19.8286 20.5711 19.716 20.5714H13.7125C13.5997 20.5719 13.4878 20.5501 13.3835 20.507C13.2792 20.464 13.1845 20.4006 13.1048 20.3206C13.0252 20.2406 12.9623 20.1455 12.9198 20.041C12.8773 19.9365 12.856 19.8245 12.8571 19.7117V15.4311Z" fill="#AEADAD"/>
<path fill-rule="evenodd" clip-rule="evenodd" d="M16.2857 17.1428H17.1428V18.8571H16.2857V17.1428Z" fill="#AEADAD"/>
<path d="M18.8571 12.4285C18.8571 11.8602 18.6314 11.3151 18.2295 10.9133C17.8276 10.5114 17.2826 10.2856 16.7143 10.2856C16.1459 10.2856 15.6009 10.5114 15.199 10.9133C14.7972 11.3151 14.5714 11.8602 14.5714 12.4285V14.9999H15.4286V12.4285C15.4286 12.0875 15.564 11.7605 15.8051 11.5194C16.0462 11.2782 16.3733 11.1428 16.7143 11.1428C17.0553 11.1428 17.3823 11.2782 17.6234 11.5194C17.8645 11.7605 18 12.0875 18 12.4285V12.8571H18.8571V12.4285Z" fill="#AEADAD"/>
<path d="M2.57141 12.6059C2.57146 12.3786 2.6618 12.1606 2.82255 11.9999L12.3763 2.44622C12.4957 2.32674 12.6374 2.23196 12.7935 2.1673C12.9495 2.10263 13.1168 2.06935 13.2857 2.06935C13.4546 2.06935 13.6219 2.10263 13.7779 2.1673C13.934 2.23196 14.0757 2.32674 14.1951 2.44622L16.4108 4.66193C16.5303 4.78133 16.6251 4.92311 16.6898 5.07915C16.7544 5.23519 16.7877 5.40245 16.7877 5.57136C16.7877 5.74027 16.7544 5.90753 16.6898 6.06357C16.6251 6.21962 16.5303 6.36139 16.4108 6.48079L6.85713 16.0345C6.69642 16.1953 6.47844 16.2856 6.25113 16.2856H3.42855C3.20123 16.2856 2.98321 16.1953 2.82246 16.0346C2.66172 15.8739 2.57141 15.6558 2.57141 15.4285V12.6059ZM3.42855 12.6059V15.4285H6.25113L15.8048 5.87479C15.8448 5.83498 15.8764 5.78769 15.898 5.73562C15.9196 5.68355 15.9307 5.62773 15.9307 5.57136C15.9307 5.51499 15.9196 5.45917 15.898 5.4071C15.8764 5.35504 15.8448 5.30774 15.8048 5.26793L13.5891 3.05222C13.5493 3.01231 13.502 2.98064 13.45 2.95904C13.3979 2.93743 13.3421 2.92631 13.2857 2.92631C13.2293 2.92631 13.1735 2.93743 13.1214 2.95904C13.0694 2.98064 13.0221 3.01231 12.9823 3.05222L3.42855 12.6059Z" fill="#AEADAD"/>
<path d="M11.268 4.16051L14.6966 7.58908L15.3034 6.98222L11.8749 3.55365L11.268 4.16051ZM3.55371 11.8748L6.98228 15.3034L7.58914 14.6965L4.16057 11.2679L3.55371 11.8748Z" fill="#AEADAD"/>
<path d="M12.9823 5.26793L5.26801 12.9822L5.87486 13.5891L13.5891 5.87479L12.9823 5.26793Z" fill="#AEADAD"/>
</svg>
