<svg width="24" height="25" viewBox="0 0 24 25" fill="none" xmlns="http://www.w3.org/2000/svg">
<path d="M12 8.84411C11.5454 8.84411 11.1093 9.02472 10.7878 9.34621C10.4664 9.6677 10.2857 10.1037 10.2857 10.5584V19.987H5.14288V10.5584C5.14288 6.77325 8.21488 3.70125 12 3.70125C15.7852 3.70125 18.8572 6.77325 18.8572 10.5584V19.987H13.7143V10.5584C13.7143 10.1037 13.5337 9.6677 13.2122 9.34621C12.8907 9.02472 12.4547 8.84411 12 8.84411ZM9.4286 10.5584C9.4286 9.87641 9.69951 9.22235 10.1818 8.74012C10.664 8.25788 11.318 7.98696 12 7.98696C12.682 7.98696 13.3361 8.25788 13.8183 8.74012C14.3005 9.22235 14.5715 9.87641 14.5715 10.5584V19.1298H18V10.5584C18 7.24639 15.312 4.55839 12 4.55839C8.68803 4.55839 6.00003 7.24639 6.00003 10.5584V19.1298H9.4286V10.5584Z" fill="#AEADAD"/>
<path fill-rule="evenodd" clip-rule="evenodd" d="M5.57147 15.7012H9.85719V16.5584H5.57147V15.7012ZM14.1429 15.7012H18.4286V16.5584H14.1429V15.7012Z" fill="#AEADAD"/>
</svg>
