<svg width="24" height="25" viewBox="0 0 24 25" fill="none" xmlns="http://www.w3.org/2000/svg">
<path d="M2.15102 17.5154C1.9099 17.7565 1.77444 18.0835 1.77444 18.4245C1.77444 18.7655 1.9099 19.0925 2.15102 19.3336L5.48452 22.6671C5.72564 22.9083 6.05267 23.0437 6.39366 23.0437C6.73465 23.0437 7.06168 22.9083 7.3028 22.6671L21.849 8.12094C22.0901 7.87983 22.2256 7.5528 22.2256 7.21181C22.2256 6.87081 22.0901 6.54379 21.849 6.30267L18.5155 2.96917C18.2744 2.72805 17.9473 2.59259 17.6064 2.59259C17.2654 2.59259 16.9383 2.72805 16.6972 2.96917L2.15102 17.5154ZM2.75711 18.1215L4.57539 16.3032L6.09061 17.8184L6.69671 17.2123L5.18148 15.6971L7.15127 13.7273L9.51503 16.091L10.1211 15.485L7.75737 13.1212L9.72716 11.1514L11.2424 12.6666L11.8485 12.0605L10.3333 10.5453L12.3031 8.57551L14.6668 10.9393L15.2729 10.3332L12.9091 7.96942L14.8789 5.99962L16.3942 7.51485L17.0003 6.90876L15.485 5.39353L17.3033 3.57526C17.3837 3.49488 17.4927 3.44973 17.6064 3.44973C17.72 3.44973 17.829 3.49488 17.9094 3.57526L21.2429 6.90876C21.3233 6.98913 21.3684 7.09814 21.3684 7.21181C21.3684 7.32547 21.3233 7.43448 21.2429 7.51485L6.69671 22.061C6.61633 22.1414 6.50732 22.1866 6.39366 22.1866C6.28 22.1866 6.17099 22.1414 6.09061 22.061L2.75711 18.7275C2.67674 18.6472 2.63159 18.5382 2.63159 18.4245C2.63159 18.3108 2.67674 18.2018 2.75711 18.1215Z" fill="#AEADAD"/>
</svg>
