<svg width="24" height="25" viewBox="0 0 24 25" fill="none" xmlns="http://www.w3.org/2000/svg">
<path d="M6.30339 19.0307L18.3034 7.0307L17.6974 6.4247L5.69739 18.4247L6.30339 19.0307Z" fill="#AEADAD"/>
<path d="M19.2857 6.72726C19.9954 6.72726 20.5714 6.15126 20.5714 5.44155C20.5714 4.73183 19.9954 4.15583 19.2857 4.15583C18.576 4.15583 18 4.73183 18 5.44155C18 6.15126 18.576 6.72726 19.2857 6.72726ZM19.2857 7.5844C18.102 7.5844 17.1428 6.62526 17.1428 5.44155C17.1428 4.25783 18.102 3.29869 19.2857 3.29869C20.4694 3.29869 21.4286 4.25783 21.4286 5.44155C21.4286 6.62526 20.4694 7.5844 19.2857 7.5844ZM4.71427 21.2987C5.42398 21.2987 5.99998 20.7227 5.99998 20.013C5.99998 19.3033 5.42398 18.7273 4.71427 18.7273C4.00455 18.7273 3.42855 19.3033 3.42855 20.013C3.42855 20.7227 4.00455 21.2987 4.71427 21.2987ZM4.71427 22.1558C3.53055 22.1558 2.57141 21.1967 2.57141 20.013C2.57141 18.8293 3.53055 17.8701 4.71427 17.8701C5.89798 17.8701 6.85713 18.8293 6.85713 20.013C6.85713 21.1967 5.89798 22.1558 4.71427 22.1558Z" fill="#AEADAD"/>
</svg>
